<svg xmlns="http://www.w3.org/2000/svg" xmlns:xlink="http://www.w3.org/1999/xlink" id="Layer_1" x="0px" y="0px" viewBox="0 0 879 272.9" style="enable-background:new 0 0 879 272.9;" xml:space="preserve"><g>	<polygon points="0,272.9 124.4,272.9 124.4,200.7 248.8,200.7 248.8,120.4 124.4,120.4 124.4,92.3 252.8,92.3 252.8,0 0,0  "></polygon>	<polygon points="276.9,272.9 537.8,272.9 537.8,192.6 401.4,192.6 401.4,168.6 517.7,168.6 517.7,100.3 401.4,100.3 401.4,80.3   537.8,80.3 537.8,0 276.9,0  "></polygon>	<path d="M718.4,0H565.9v272.9h152.5c91.9,0,160.5-56.6,160.5-136.4C879,56.6,810.3,0,718.4,0z M714.4,172.6h-28.1v-72.2h28.1  c23.7,0,38.1,17.3,38.1,36.1S738.1,172.6,714.4,172.6z"></path></g></svg>