<?xml version="1.0" encoding="UTF-8"?>
<!-- Generator: Adobe Illustrator 24.0.0, SVG Export Plug-In . SVG Version: 6.00 Build 0)  -->
<svg xmlns="http://www.w3.org/2000/svg" xmlns:xlink="http://www.w3.org/1999/xlink" version="1.1" id="Layer_1" x="0px" y="0px" viewBox="0 0 879 272.9" style="enable-background:new 0 0 879 272.9;" xml:space="preserve">
<style type="text/css">
	.st0{fill:#FFFFFF;}
</style>
<g>
	<polygon class="st0" points="0,272.9 124.4,272.9 124.4,200.7 248.8,200.7 248.8,120.4 124.4,120.4 124.4,92.3 252.8,92.3 252.8,0    0,0  "></polygon>
	<polygon class="st0" points="276.9,272.9 537.8,272.9 537.8,192.6 401.4,192.6 401.4,168.6 517.7,168.6 517.7,100.3 401.4,100.3    401.4,80.3 537.8,80.3 537.8,0 276.9,0  "></polygon>
	<path class="st0" d="M718.4,0H565.9v272.9h152.5c91.9,0,160.5-56.6,160.5-136.4C879,56.6,810.3,0,718.4,0z M714.4,172.6h-28.1   v-72.2h28.1c23.7,0,38.1,17.3,38.1,36.1C752.5,155.3,738.1,172.6,714.4,172.6z"></path>
</g>
</svg>
